# xmcd
#
# Track frame offsets: 
#        150
#        22175
#        44387
#        66330
#        83206
#        101557
#        108630
#        118630
#
# Disc length: 1875 seconds
#
# Revision: 0
# Processed by: cddbd v1.5.2PL0 Copyright (c) Steve Scherf et al.
# Submitted via: ExactAudioCopy v1.2
#
DISCID=6d075108
DTITLE=Aimer - 誰か、海を。 EP
DYEAR=2014
DGENRE=JPop
TTITLE0=誰か、海を。 
TTITLE1=白昼夢
TTITLE2=for ロンリー with 阿部真央 
TTITLE3=眠りの森 (Kazuki Remix) with Yuuki Ozaki(from Galileo Galilei) 
TTITLE4=Cold Sun (Ryo Nagano Remix) with 永野亮(APOGEE) 
TTITLE5=誰か、海を。 (TV size) 
TTITLE6=誰か、海を。 (TV size) 
TTITLE7=誰か、海を。 (instrumental)
EXTD=
EXTT0=
EXTT1=
EXTT2=
EXTT3=
EXTT4=
EXTT5=
EXTT6=
EXTT7=
PLAYORDER=
